<svg width="179" height="178" viewBox="0 0 179 178" fill="none" xmlns="http://www.w3.org/2000/svg">
<path fill-rule="evenodd" clip-rule="evenodd" d="M42.5901 44.5001H158.804L147.736 111.25H53.6581L42.5901 44.5001Z" stroke="black" stroke-width="3" stroke-linecap="round" stroke-linejoin="round"/>
<path fill-rule="evenodd" clip-rule="evenodd" d="M67.1251 148.333C71.2442 148.333 74.5834 145.013 74.5834 140.917C74.5834 136.821 71.2442 133.5 67.1251 133.5C63.006 133.5 59.6667 136.821 59.6667 140.917C59.6667 145.013 63.006 148.333 67.1251 148.333Z" stroke="black" stroke-width="3"/>
<path fill-rule="evenodd" clip-rule="evenodd" d="M134.25 148.333C138.369 148.333 141.708 145.013 141.708 140.917C141.708 136.821 138.369 133.5 134.25 133.5C130.131 133.5 126.792 136.821 126.792 140.917C126.792 145.013 130.131 148.333 134.25 148.333Z" stroke="black" stroke-width="3"/>
<path d="M52.2083 44.4999H22.375" stroke="black" stroke-width="3" stroke-linecap="round"/>
</svg>
