<svg width="303" height="235" viewBox="0 0 303 235" fill="none" xmlns="http://www.w3.org/2000/svg">
<g clip-path="url(#clip0_264_57)">
<path d="M8.69367 203.095L7.30155 197.957L24.4048 193.359C28.3539 192.309 32.8428 190.833 31.0529 184.162C29.263 177.492 24.6321 178.485 20.683 179.536L3.57975 184.134L2.18762 178.996L20.9955 173.944C28.5243 171.928 33.553 175.732 35.5134 182.97C37.4737 190.208 35.002 196.027 27.4731 198.043L8.66526 203.095H8.69367Z" fill="black"/>
<path d="M0.568214 167.614L0.42616 161.994L22.5297 147.574V147.489L0.113643 148L0 142.919L30.4278 142.209L30.5699 147.829L8.52321 162.192V162.306L30.9108 161.795L31.0245 166.847L0.596624 167.557L0.568214 167.614Z" fill="black"/>
<path d="M40.8546 101.335L39.8034 104.571L36.1384 104.23C38.326 107.948 38.5249 110.759 37.3885 114.278C34.5474 122.936 25.9674 125.888 17.6999 123.191C9.43235 120.495 4.2332 113.058 7.07426 104.4C9.14824 98.0704 14.2338 93.8694 21.0239 95.2319L19.4045 100.171C15.427 99.4045 12.4155 102.101 11.2222 105.734C9.20507 111.922 13.836 116.294 19.3761 118.11C24.9162 119.927 31.2518 119.104 33.2689 112.916C35.0304 107.75 32.8428 103.918 27.9561 102.215L25.456 109.907L21.5921 108.658L25.6264 96.3389L40.8546 101.306V101.335Z" fill="black"/>
<path d="M16.7908 81.8625L19.6318 77.3492L34.6327 86.8015C38.0988 88.9871 42.2467 91.2863 45.9117 85.439C49.6051 79.5917 45.7129 76.8667 42.2752 74.681L27.2743 65.2288L30.1154 60.7156L46.5936 71.0761C53.1849 75.2204 53.8099 81.5218 49.804 87.8517C45.7981 94.1816 39.8603 96.3388 33.269 92.1946L16.7908 81.8341V81.8625Z" fill="black"/>
<path d="M54.2075 63.9231C57.5032 67.2442 61.2534 66.1088 64.2933 63.1283C67.6174 59.8357 67.248 56.9688 65.6286 55.3225C63.9808 53.6477 62.4182 53.9032 61.1966 54.4425C59.1226 55.3792 56.7645 56.9404 52.9859 59.0409C48.2981 61.7091 45.0025 60.5453 42.758 58.3029C38.468 53.9884 40.4568 47.9991 44.349 44.1104C48.8663 39.6255 55.003 38.263 59.4919 42.7763L55.7133 46.5231C52.7586 43.9117 49.8607 44.7632 47.2753 47.3463C45.5139 49.0777 43.9513 51.9162 46.1105 54.1019C47.6163 55.6063 49.4914 55.436 51.4517 54.329C51.8779 54.1019 57.9009 50.5821 59.3499 49.8157C63.0433 47.8288 66.7935 48.9074 69.0379 51.1499C73.8393 55.9753 71.4812 62.1916 67.1628 66.4494C62.2194 71.3316 55.8838 72.9496 50.4857 67.6983L54.2644 63.9515L54.2075 63.9231Z" fill="black"/>
<path d="M58.8385 31.7345L79.4931 18.3083L81.9932 22.1687L73.8962 27.4483L87.9879 49.0778L83.5274 51.973L69.4357 30.3436L61.3671 35.5949L58.8669 31.7345H58.8385Z" fill="black"/>
<path d="M118.444 19.1599C121.427 27.3064 118.785 35.9638 110.233 39.1146C101.682 42.2369 94.0678 37.2979 91.0847 29.1514C88.1015 21.0049 90.7437 12.3475 99.2954 9.19673C107.847 6.04598 115.461 11.0134 118.444 19.1599ZM96.0849 27.3064C98.1021 32.7847 102.619 37.2412 108.756 34.9988C114.864 32.7563 115.461 26.4265 113.472 20.9481C111.484 15.4698 106.938 11.0134 100.801 13.2558C94.6644 15.4982 94.0962 21.8281 96.0849 27.3064Z" fill="black"/>
<path d="M158.106 10.2753C157.14 6.81233 154.867 4.28606 150.406 4.34283C143.9 4.45637 141.258 10.2469 141.343 16.0659C141.428 21.8848 144.27 27.5902 150.776 27.505C155.52 27.4199 158.049 23.8434 158.39 19.4153L163.589 19.3301C163.276 26.6251 158.219 31.7344 150.832 31.848C141.713 31.9899 136.144 24.8368 136.002 16.151C135.888 7.46519 141.23 0.141838 150.349 -8.69236e-05C157.225 -0.0568571 162.68 3.6332 163.418 10.1902L158.077 10.2753H158.106Z" fill="black"/>
<path d="M197.312 23.0487C195.295 31.5074 188.306 37.2696 179.413 35.1407C170.549 33.0118 166.941 24.695 168.958 16.2646C170.975 7.83427 177.965 2.04371 186.857 4.17259C195.721 6.30147 199.329 14.5899 197.312 23.0487ZM174.129 17.5136C172.765 23.1906 174.072 29.4069 180.436 30.9397C186.772 32.4441 190.778 27.5051 192.141 21.8281C193.505 16.1511 192.198 9.93476 185.863 8.40197C179.527 6.86917 175.521 11.8366 174.157 17.5136H174.129Z" fill="black"/>
<path d="M210.523 12.1771L215.495 14.7886L217.399 41.0731H217.484L227.882 21.2603L232.371 23.6163L218.251 50.5537L213.279 47.9423L211.376 21.7145L211.262 21.6577L200.892 41.4705L196.403 39.1146L210.523 12.1771Z" fill="black"/>
<path d="M252.77 60.1196C246.974 66.5914 238.082 68.3513 231.291 62.3053C224.501 56.2309 225.268 47.2044 231.036 40.7326C236.831 34.2608 245.724 32.5009 252.514 38.5753C259.304 44.6497 258.537 53.6762 252.77 60.148V60.1196ZM235.013 44.2524C231.121 48.5953 229.331 54.6981 234.189 59.041C239.047 63.3839 244.929 60.9144 248.821 56.5715C252.713 52.2286 254.503 46.1258 249.645 41.7829C244.786 37.4399 238.905 39.9094 235.013 44.2524Z" fill="black"/>
<path d="M273.197 79.2794C275.584 76.5829 276.436 73.2618 273.936 69.6001C270.271 64.207 263.992 65.2005 259.134 68.4647C254.276 71.729 251.094 77.2357 254.759 82.6289C257.429 86.546 261.805 86.6879 265.725 84.5591L268.651 88.8452C262.373 92.592 255.327 91.1444 251.179 85.07C246.037 77.548 248.963 68.9473 256.151 64.065C263.339 59.1828 272.402 59.6086 277.544 67.159C281.379 72.8644 281.266 79.4498 276.209 83.6791L273.226 79.2794H273.197Z" fill="black"/>
<path d="M288.567 87.426L296.522 107.807L292.232 109.481L286.209 94.0398L278.794 96.935L284.363 111.213L280.3 112.802L274.731 98.5246L266.435 101.76L272.572 117.486L268.282 119.161L260.214 98.4962L288.567 87.4544V87.426Z" fill="black"/>
<path d="M299.136 117.656L301.267 132.019C302.233 138.576 299.704 142.408 294.619 143.174C288.851 144.026 286.777 140.251 286.294 139.342H286.209C286.209 141.216 285.272 144.054 280.527 144.764C277.033 145.275 273.907 146.268 272.856 147.602L272.004 141.954C273.197 140.96 274.845 140.705 276.294 140.506C281.806 139.683 284.078 138.179 283.368 133.353L282.203 125.604L269.816 127.449L269.021 122.198L299.108 117.713L299.136 117.656ZM286.238 124.951L287.516 133.58C288.027 136.901 289.931 138.462 293.085 138.008C296.92 137.441 297.318 134.829 296.892 132.104L295.613 123.56L286.209 124.951H286.238Z" fill="black"/>
<path d="M303 148.539L301.551 173.092L296.949 172.808L297.517 163.157L271.748 161.624L272.061 156.316L297.829 157.849L298.398 148.255L303 148.539Z" fill="black"/>
<path d="M299.988 181.324L294.278 202.442L289.846 201.25L294.164 185.269L286.465 183.197L282.459 197.986L278.254 196.85L282.26 182.062L273.652 179.734L269.248 195.999L264.816 194.807L270.612 173.404L299.988 181.324Z" fill="black"/>
<path d="M154.27 235H137.707L135.86 204.628C135.746 202.896 137.082 201.42 138.786 201.335C140.491 201.222 141.997 202.527 142.082 204.259L143.559 228.784H154.242C155.975 228.784 157.367 230.174 157.367 231.906C157.367 233.637 155.975 235.028 154.242 235.028L154.27 235Z" fill="black"/>
<path d="M185.891 235H169.328L167.481 204.628C167.367 202.896 168.703 201.42 170.407 201.335C172.084 201.222 173.618 202.527 173.703 204.259L175.18 228.784H185.863C187.596 228.784 188.988 230.174 188.988 231.906C188.988 233.637 187.596 235.028 185.863 235.028L185.891 235Z" fill="black"/>
<path d="M204.472 182.204C195.693 193.898 184.442 201.307 170.237 205.111C154.923 209.198 139.298 207.211 129.837 202.244C121.058 197.617 112.393 188.562 106.853 180.359C101.313 172.155 92.6188 155.493 87.7322 141.528C84.9195 133.523 82.7319 127.08 82.2205 121.119C81.8796 117.23 81.9364 112.007 84.9195 108.204C89.38 102.498 97.5907 100.71 104.608 106.898C103.017 103.208 102.591 97.815 102.989 94.4088C103.273 91.8541 104.779 87.6815 107.932 85.3823C111.143 83.0263 117.08 82.5154 120.035 83.2818C123.388 84.1334 125.66 86.9151 126.598 88.533C128.104 91.1161 128.019 92.3083 128.587 94.0398C126.996 88.9588 127.592 81.8058 128.928 78.5983C130.036 75.9017 132.138 73.5741 134.61 72.0413C136.542 70.8491 139.809 70.3666 142.053 70.5937C147.309 71.1046 151.741 73.9715 153.475 78.6267C155.122 83.0263 156.003 87.1138 156.657 91.5135C155.861 88.1073 155.691 84.9849 156.401 81.6639C156.969 79.024 158.39 75.4759 162.31 73.4038C168.22 70.2531 174.584 71.3885 177.993 75.3056C180.919 78.655 181.885 83.736 182.88 88.0789C184.584 95.6861 185.664 103.577 187.113 111.411C187.596 114.051 188.789 120.722 189.585 121.829C190.295 120.409 191.119 116.436 191.658 115.158C192.34 113.512 193.278 110.645 194.045 109.027C195.551 105.933 197.113 103.889 200.267 102.271C203.875 100.426 211.006 101.335 214.302 103.691C218.024 106.359 219.473 109.765 220.353 114.165C221.262 118.792 220.524 124.979 220.098 129.691C220.069 130.032 218.62 142.096 218.592 142.436C218.592 142.436 215.722 167.245 204.472 182.204Z" fill="#009FE3"/>
<path d="M155.946 184.418C152.878 184.418 149.838 183.708 147.054 182.289C142.338 179.905 138.815 175.817 137.167 170.821C136.599 169.118 137.536 167.273 139.241 166.706C140.945 166.138 142.792 167.075 143.36 168.778C144.468 172.127 146.826 174.88 149.98 176.47C153.134 178.06 156.742 178.343 160.123 177.236C167.083 174.937 170.862 167.444 168.589 160.489C168.021 158.786 168.958 156.941 170.663 156.373C172.368 155.806 174.214 156.742 174.783 158.446C176.43 163.47 176.033 168.834 173.646 173.546C171.26 178.258 167.168 181.778 162.168 183.424C160.123 184.106 158.049 184.418 155.946 184.418Z" fill="black"/>
<path d="M135.888 156.544C135.462 156.657 135.036 156.714 134.61 156.714C132.877 156.714 131.286 155.635 130.718 153.932C130.007 151.775 131.201 149.447 133.331 148.766C135.462 148.057 137.792 149.249 138.502 151.378C139.184 153.506 138.019 155.834 135.888 156.544Z" fill="black"/>
<path d="M167.31 146.183C166.884 146.325 166.487 146.382 166.032 146.382C164.299 146.382 162.736 145.275 162.14 143.6C161.429 141.443 162.623 139.115 164.754 138.406C165.776 138.093 166.884 138.15 167.879 138.633C168.845 139.144 169.612 139.967 169.924 141.017C170.635 143.146 169.441 145.473 167.31 146.183Z" fill="black"/>
<path d="M118.842 142.72C117.649 142.72 116.541 142.039 116.001 140.903C109.921 127.79 102.875 110.957 102.818 110.815C102.165 109.226 102.903 107.409 104.494 106.728C106.085 106.075 107.904 106.813 108.586 108.403C108.671 108.573 115.66 125.263 121.683 138.292C122.422 139.853 121.74 141.698 120.149 142.436C119.723 142.635 119.268 142.72 118.842 142.72Z" fill="black"/>
<path d="M138.815 130.06C137.536 130.06 136.314 129.266 135.86 127.988C134.013 122.851 125.945 96.0835 125.604 94.9481C125.121 93.3018 126.03 91.5703 127.706 91.0593C129.354 90.5484 131.087 91.4851 131.598 93.1598C131.684 93.4437 139.979 120.892 141.741 125.916C142.309 127.534 141.485 129.322 139.837 129.89C139.496 130.004 139.127 130.06 138.786 130.06H138.815Z" fill="black"/>
<path d="M162.367 125.207C160.89 125.207 159.583 124.156 159.299 122.652L153.276 90.4349C152.963 88.7318 154.071 87.1138 155.776 86.8016C157.509 86.4893 159.1 87.5964 159.412 89.2995L165.435 121.517C165.748 123.22 164.64 124.838 162.935 125.15C162.736 125.178 162.538 125.207 162.367 125.207Z" fill="black"/>
</g>
<defs>
<clipPath id="clip0_264_57">
<rect width="303" height="235" fill="white"/>
</clipPath>
</defs>
</svg>
