<svg width="65" height="65" viewBox="0 0 65 65" fill="none" xmlns="http://www.w3.org/2000/svg">
<path d="M56.5511 52.7912C52.5005 58.2636 47.3094 61.7303 40.7551 63.5102C33.6895 65.4228 26.4796 64.4931 22.1144 62.1686C18.0638 60.0036 14.0657 55.7665 11.5094 51.9279C8.95324 48.0892 4.94196 40.2925 2.68726 33.7575C1.38949 30.0118 0.380118 26.9967 0.144161 24.2074C-0.0131442 22.3877 0.0130719 19.9438 1.38949 18.1639C3.44756 15.4941 7.23599 14.6574 10.4739 17.5529C9.73977 15.8262 9.54313 13.3025 9.72666 11.7086C9.85774 10.5132 10.5525 8.56071 12.0076 7.48484C13.4889 6.38239 16.2286 6.14331 17.5919 6.50194C19.1387 6.90041 20.1874 8.20209 20.62 8.95919C21.3148 10.1679 21.2755 10.7258 21.5376 11.536C20.8036 9.15842 21.0788 5.81125 21.6949 4.31033C22.2062 3.0485 23.1762 1.95934 24.3167 1.24209C25.2081 0.684227 26.7156 0.458428 27.7512 0.564687C30.1763 0.803771 32.2213 2.1453 33.0209 4.32362C33.7812 6.38239 34.1876 8.29507 34.4891 10.3538C34.122 8.75995 34.0434 7.29888 34.3711 5.74484C34.6333 4.50957 35.2887 2.84927 37.0977 1.87965C39.8244 0.405297 42.7607 0.936595 44.3338 2.76957C45.684 4.3369 46.1297 6.71446 46.5885 8.74667C47.375 12.3064 47.8731 15.9989 48.5417 19.6648C48.7645 20.9001 49.3151 24.0215 49.6821 24.5395C50.0099 23.8754 50.39 22.0158 50.6391 21.4181C50.9537 20.6477 51.3863 19.3062 51.7402 18.5491C52.435 17.1013 53.1559 16.145 54.611 15.3879C56.2758 14.5245 59.5661 14.9496 61.0867 16.052C62.804 17.3006 63.4725 18.8945 63.8789 20.9532C64.2984 23.1183 63.9576 26.0138 63.7609 28.2187C63.7478 28.3781 63.0793 34.0231 63.0662 34.1825C63.0662 34.1825 61.7422 45.7914 56.5511 52.7912Z" fill="#009FE3"/>
<path d="M34.1614 53.8273C32.7456 53.8273 31.343 53.4953 30.0583 52.8311C27.8823 51.7154 26.2568 49.8027 25.4965 47.465C25.2343 46.6681 25.6669 45.8047 26.4534 45.5391C27.2399 45.2734 28.092 45.7117 28.3542 46.5087C28.8654 48.076 29.9534 49.3644 31.4085 50.1082C32.8636 50.852 34.5284 50.9849 36.0883 50.4669C39.3 49.391 41.0434 45.8844 39.9947 42.6302C39.7326 41.8333 40.1652 40.9699 40.9517 40.7043C41.7382 40.4386 42.5903 40.8769 42.8525 41.6739C43.6128 44.0249 43.4292 46.5353 42.3281 48.7401C41.227 50.945 39.3393 52.5921 37.0322 53.3624C36.0883 53.6812 35.1314 53.8273 34.1614 53.8273Z" fill="black"/>
<path d="M24.9067 40.7839C24.71 40.8371 24.5134 40.8636 24.3168 40.8636C23.5171 40.8636 22.783 40.3589 22.5209 39.562C22.1931 38.5525 22.7437 37.4633 23.7269 37.1446C24.71 36.8125 25.7849 37.3704 26.1127 38.3665C26.4273 39.3627 25.8898 40.4519 24.9067 40.7839Z" fill="black"/>
<path d="M39.4048 35.9358C39.2082 36.0022 39.0247 36.0287 38.8149 36.0287C38.0153 36.0287 37.2943 35.5107 37.019 34.7271C36.6913 33.7176 37.2419 32.6284 38.225 32.2964C38.697 32.1503 39.2082 32.1768 39.667 32.4026C40.1127 32.6417 40.4666 33.0269 40.6108 33.5184C40.9385 34.5145 40.388 35.6037 39.4048 35.9358Z" fill="black"/>
<path d="M17.0413 34.3154C16.4907 34.3154 15.9795 33.9966 15.7304 33.4653C12.9251 27.3288 9.67415 19.4523 9.64793 19.3859C9.34643 18.6421 9.68726 17.792 10.4213 17.4732C11.1554 17.1677 11.9944 17.5131 12.309 18.2569C12.3483 18.3366 15.5731 26.1467 18.3521 32.2433C18.693 32.9738 18.3784 33.8372 17.6443 34.1825C17.4476 34.2755 17.2379 34.3154 17.0413 34.3154Z" fill="black"/>
<path d="M26.2568 28.3914C25.6669 28.3914 25.1033 28.0195 24.8935 27.4217C24.0415 25.0176 20.3186 12.4923 20.1613 11.961C19.9384 11.1906 20.3579 10.3804 21.1313 10.1413C21.8916 9.90221 22.6913 10.3405 22.9272 11.1242C22.9665 11.257 26.7943 24.1011 27.607 26.4521C27.8692 27.2092 27.4891 28.046 26.7288 28.3117C26.5715 28.3648 26.401 28.3914 26.2437 28.3914H26.2568Z" fill="black"/>
<path d="M37.1239 26.1201C36.4423 26.1201 35.8393 25.6286 35.7082 24.9246L32.9291 9.84907C32.7849 9.05212 33.2962 8.29502 34.0827 8.14891C34.8823 8.00281 35.6164 8.52082 35.7606 9.31777L38.5397 24.3933C38.6838 25.1903 38.1726 25.9474 37.3861 26.0935C37.2943 26.1068 37.2026 26.1201 37.1239 26.1201Z" fill="black"/>
</svg>
