<svg width="116" height="146" viewBox="0 0 116 146" fill="none" xmlns="http://www.w3.org/2000/svg">
<path d="M4.8335 116.408C4.8335 105.533 19.3335 105.533 26.5835 98.2834C30.2085 94.6584 19.3335 94.6584 19.3335 76.5334C19.3335 64.4513 24.1656 58.4084 33.8335 58.4084C43.5014 58.4084 48.3335 64.4513 48.3335 76.5334C48.3335 94.6584 37.4585 94.6584 41.0835 98.2834C48.3335 105.533 62.8335 105.533 62.8335 116.408" stroke="black" stroke-width="3" stroke-linecap="round"/>
<path d="M57.9746 107.917C60.7151 106.028 64.2727 104.668 67.6769 103.029C70.3385 101.747 72.9063 100.294 74.9167 98.2834C78.5417 94.6584 67.6667 94.6584 67.6667 76.5334C67.6667 64.4513 72.4989 58.4084 82.1667 58.4084C91.8346 58.4084 96.6667 64.4513 96.6667 76.5334C96.6667 94.6584 85.7917 94.6584 89.4167 98.2834C96.6667 105.533 111.167 105.533 111.167 116.408" stroke="black" stroke-width="3" stroke-linecap="round"/>
<path d="M55.5025 46.8193L55.8809 45.3678C55.5347 45.2775 55.1676 45.314 54.8459 45.4706L55.5025 46.8193ZM44.7257 52.0659L44.0691 50.7172L44.0691 50.7172L44.7257 52.0659ZM43.2986 51.0216L44.7827 51.2393L44.7827 51.2393L43.2986 51.0216ZM44.7136 41.377L46.1977 41.5948C46.2731 41.0811 46.0775 40.5649 45.6805 40.2302L44.7136 41.377ZM63.7186 49.3569C78.4635 49.3569 91.0872 39.9909 91.0872 27.7066H88.0872C88.0872 37.6797 77.5474 46.3569 63.7186 46.3569V49.3569ZM55.1241 48.2708C57.8299 48.9762 60.7199 49.3569 63.7186 49.3569V46.3569C60.9733 46.3569 58.3377 46.0083 55.8809 45.3678L55.1241 48.2708ZM45.3823 53.4145L56.1591 48.1679L54.8459 45.4706L44.0691 50.7172L45.3823 53.4145ZM41.8145 50.8038C41.5229 52.7915 43.5761 54.2939 45.3823 53.4145L44.0691 50.7172C44.4304 50.5413 44.841 50.8418 44.7827 51.2393L41.8145 50.8038ZM43.2295 41.1593L41.8145 50.8038L44.7827 51.2393L46.1977 41.5948L43.2295 41.1593ZM36.3501 27.7066C36.3501 33.506 39.2157 38.7037 43.7467 42.5238L45.6805 40.2302C41.6907 36.8664 39.3501 32.4593 39.3501 27.7066H36.3501ZM63.7186 6.0564C48.9738 6.0564 36.3501 15.4223 36.3501 27.7066H39.3501C39.3501 17.7336 49.8899 9.0564 63.7186 9.0564V6.0564ZM91.0872 27.7066C91.0872 15.4223 78.4635 6.0564 63.7186 6.0564V9.0564C77.5474 9.0564 88.0872 17.7336 88.0872 27.7066H91.0872Z" fill="black"/>
</svg>
