<svg width="31" height="31" viewBox="0 0 31 31" fill="none" xmlns="http://www.w3.org/2000/svg">
<g clip-path="url(#clip0_322_631)">
<path d="M13.3862 18.5728L18.7879 15.5L13.3862 12.4272V18.5728Z" fill="white"/>
<path d="M15.5 0C6.93958 0 0 6.93958 0 15.5C0 24.0604 6.93958 31 15.5 31C24.0604 31 31 24.0604 31 15.5C31 6.93958 24.0604 0 15.5 0ZM25.4015 20.5066C25.2847 20.9464 25.0545 21.3477 24.7338 21.6705C24.4131 21.9933 24.0132 22.2261 23.5742 22.3457C21.9628 22.7802 15.5 22.7802 15.5 22.7802C15.5 22.7802 9.03723 22.7802 7.42577 22.3457C6.98678 22.2261 6.58692 21.9933 6.26623 21.6705C5.94553 21.3477 5.71526 20.9464 5.59847 20.5066C5.16677 18.8846 5.16677 15.5 5.16677 15.5C5.16677 15.5 5.16677 12.1154 5.59847 10.4934C5.71526 10.0536 5.94553 9.65228 6.26623 9.32951C6.58692 9.00674 6.98678 8.77389 7.42577 8.65427C9.03723 8.21984 15.5 8.21984 15.5 8.21984C15.5 8.21984 21.9628 8.21984 23.5742 8.65427C24.0132 8.77389 24.4131 9.00674 24.7338 9.32951C25.0545 9.65228 25.2847 10.0536 25.4015 10.4934C25.8332 12.1154 25.8332 15.5 25.8332 15.5C25.8332 15.5 25.8332 18.8846 25.4015 20.5066Z" fill="white"/>
</g>
<defs>
<clipPath id="clip0_322_631">
<rect width="31" height="31" fill="white"/>
</clipPath>
</defs>
</svg>
