<svg width="45" height="32" viewBox="0 0 45 32" fill="none" xmlns="http://www.w3.org/2000/svg">
<path d="M26.8845 30.7973V4.72241C26.8845 4.72241 23.1304 1 19.3702 1C15.6101 1 9.98193 4.72241 9.98193 4.72241V30.7973C9.98193 30.7973 15.6161 27.0749 19.3702 27.0749C23.1243 27.0749 26.8845 30.7973 26.8845 30.7973Z" stroke="black" stroke-width="2" stroke-linecap="round" stroke-linejoin="round"/>
<path d="M26.8848 30.7973V4.72241C26.8848 4.72241 30.6389 1 34.399 1C38.1592 1 43.7873 4.72241 43.7873 4.72241V30.7973C43.7873 30.7973 38.1531 27.0749 34.399 27.0749C30.6449 27.0749 26.8848 30.7973 26.8848 30.7973Z" stroke="black" stroke-width="2" stroke-linecap="round" stroke-linejoin="round"/>
<path fill-rule="evenodd" clip-rule="evenodd" d="M5.06321 13.5203C4.86307 13.7488 4.75391 14.0374 4.75391 14.3441V22.8533C4.75391 23.5509 5.324 24.1162 6.02751 24.1162H10.5033C13.1536 24.1162 15.4219 22.2339 15.901 19.6541L16.1496 18.3071C16.5742 15.9979 14.7851 13.8751 12.4198 13.8751H10.473C10.4305 13.8751 10.4002 13.833 10.4123 13.7969L11.9164 9.32881C12.1166 8.73346 11.8436 8.07798 11.2796 7.80136C10.758 7.54277 10.1212 7.66906 9.73916 8.10805L5.06321 13.5203Z" fill="white" stroke="black" stroke-width="2"/>
<path d="M1 23.1841V14.8072" stroke="black" stroke-width="2" stroke-linecap="round"/>
</svg>
