<svg width="201" height="49" viewBox="0 0 201 49" fill="none" xmlns="http://www.w3.org/2000/svg">
<g clip-path="url(#clip0_376_124)">
<path d="M71.6 15.48C71.6 19.73 69.17 21.98 64.96 21.98C60.75 21.98 58.03 19.97 58.03 15.48V4.70001H60.28V15.48C60.28 18.46 61.98 20.09 64.96 20.09C67.94 20.09 69.36 18.46 69.36 15.48V4.70001H71.61V15.48H71.6Z" fill="black"/>
<path d="M75.17 4.70001H77.56L86.45 18.39H86.5V4.70001H88.63V21.58H86.17L77.35 8.04001H77.3V21.58H75.17V4.70001Z" fill="black"/>
<path d="M111.46 19.47C110.16 21.24 108.03 21.98 106.05 21.98C101.02 21.98 98.01 17.87 98.01 13.47C98.01 8.55002 100.7 4.30002 106.05 4.30002C109.74 4.30002 112.67 5.95002 113.31 9.90002H111.06C110.61 7.35002 108.56 6.19002 106.05 6.19002C101.96 6.19002 100.26 9.73002 100.26 13.35C100.26 16.97 102.29 20.09 106.05 20.09C109.52 20.09 111.6 17.66 111.46 14.58H106.07V12.69H113.47V21.58H112.05L111.46 19.48V19.47Z" fill="black"/>
<path d="M130.25 15.48C130.25 19.73 127.82 21.98 123.61 21.98C119.4 21.98 116.69 19.97 116.69 15.48V4.70001H118.94V15.48C118.94 18.46 120.64 20.09 123.62 20.09C126.6 20.09 128.02 18.46 128.02 15.48V4.70001H130.27V15.48H130.25Z" fill="black"/>
<path d="M143.61 9.64001C143.35 7.23001 141.74 6.19001 139.43 6.19001C137.54 6.19001 135.65 6.88001 135.65 9.07001C135.65 11.15 138.34 11.46 141.06 12.07C143.75 12.68 146.45 13.63 146.45 16.94C146.45 20.53 142.93 21.98 139.86 21.98C136.08 21.98 132.89 20.14 132.89 16.02H135.02C135.02 18.86 137.38 20.08 139.94 20.08C141.97 20.08 144.22 19.44 144.22 17.01C144.22 14.58 141.53 14.29 138.83 13.7C136.13 13.11 133.42 12.33 133.42 9.23001C133.42 5.80001 136.47 4.29001 139.54 4.29001C142.99 4.29001 145.61 5.92001 145.76 9.63001H143.63L143.61 9.64001Z" fill="black"/>
<path d="M153 6.59001H147.37V4.70001H160.87V6.59001H155.25V21.58H153V6.59001Z" fill="black"/>
<path d="M169.88 4.30002C175.25 4.30002 177.96 8.55002 177.96 13.14C177.96 17.73 175.24 21.98 169.88 21.98C164.52 21.98 161.8 17.73 161.8 13.14C161.8 8.55002 164.52 4.30002 169.88 4.30002ZM169.88 20.09C173.99 20.09 175.72 16.55 175.72 13.14C175.72 9.73002 173.99 6.19002 169.88 6.19002C165.77 6.19002 164.04 9.73002 164.04 13.14C164.04 16.55 165.77 20.09 169.88 20.09Z" fill="black"/>
<path d="M70 31.78C69.53 29.39 67.61 28.19 65.27 28.19C61.25 28.19 59.55 31.5 59.55 35.02C59.55 38.87 61.25 42.09 65.29 42.09C68.24 42.09 69.95 40.01 70.16 37.22H72.41C71.98 41.43 69.36 43.98 65.11 43.98C59.86 43.98 57.31 40.1 57.31 35.19C57.31 30.28 60.1 26.3 65.3 26.3C68.82 26.3 71.73 28.19 72.25 31.78H70Z" fill="black"/>
<path d="M82.34 26.3C87.71 26.3 90.42 30.55 90.42 35.14C90.42 39.73 87.7 43.98 82.34 43.98C76.98 43.98 74.26 39.73 74.26 35.14C74.26 30.55 76.98 26.3 82.34 26.3ZM82.34 42.09C86.45 42.09 88.18 38.55 88.18 35.14C88.18 31.73 86.45 28.19 82.34 28.19C78.23 28.19 76.5 31.73 76.5 35.14C76.5 38.55 78.23 42.09 82.34 42.09Z" fill="black"/>
<path d="M93.14 26.7H95.53L104.42 40.39H104.47V26.7H106.6V43.58H104.14L95.32 30.04H95.27V43.58H93.14V26.7Z" fill="black"/>
<path d="M117.37 26.3C122.74 26.3 125.45 30.55 125.45 35.14C125.45 39.73 122.73 43.98 117.37 43.98C112.01 43.98 109.29 39.73 109.29 35.14C109.29 30.55 112.01 26.3 117.37 26.3ZM117.37 42.09C121.48 42.09 123.21 38.55 123.21 35.14C123.21 31.73 121.48 28.19 117.37 28.19C113.26 28.19 111.53 31.73 111.53 35.14C111.53 38.55 113.26 42.09 117.37 42.09Z" fill="black"/>
<path d="M140.07 31.78C139.6 29.39 137.68 28.19 135.34 28.19C131.32 28.19 129.62 31.5 129.62 35.02C129.62 38.87 131.32 42.09 135.36 42.09C138.32 42.09 140.02 40.01 140.23 37.22H142.48C142.06 41.43 139.43 43.98 135.18 43.98C129.93 43.98 127.38 40.1 127.38 35.19C127.38 30.28 130.17 26.3 135.37 26.3C138.89 26.3 141.8 28.19 142.32 31.78H140.07Z" fill="black"/>
<path d="M145.27 26.7H156.92V28.59H147.51V33.96H156.28V35.85H147.51V41.69H156.99V43.58H145.27V26.7Z" fill="black"/>
<path d="M159.71 26.7H167.65C170.82 26.7 172.78 28.43 172.78 31.12C172.78 33.15 171.88 34.83 169.85 35.4V35.45C171.81 35.83 172.21 37.27 172.38 38.92C172.52 40.57 172.43 42.42 173.37 43.58H170.86C170.22 42.89 170.58 41.08 170.25 39.42C170.01 37.77 169.61 36.37 167.44 36.37H161.96V43.58H159.71V26.7ZM166.64 34.48C168.74 34.48 170.54 33.94 170.54 31.48C170.54 29.83 169.64 28.6 167.54 28.6H161.96V34.49H166.64V34.48Z" fill="black"/>
<path d="M179.31 28.59H173.68V26.7H187.18V28.59H181.56V43.58H179.31V28.59Z" fill="black"/>
<path d="M189.05 26.7H200.7V28.59H191.29V33.96H200.06V35.85H191.29V41.69H200.77V43.58H189.05V26.7Z" fill="black"/>
<path d="M43.04 39.32C39.95 43.43 36 46.05 31 47.38C25.62 48.81 20.12 48.12 16.8 46.37C13.71 44.75 10.66 41.56 8.71999 38.67C6.77999 35.78 3.70999 29.91 1.98999 25C0.999991 22.18 0.229991 19.92 0.0499913 17.82C-0.0700087 16.45 -0.0500086 14.61 0.989991 13.27C2.55999 11.26 5.44999 10.63 7.91999 12.81C7.36999 11.51 7.20999 9.60999 7.34999 8.41999C7.44999 7.52999 7.97999 6.04999 9.08999 5.23999C10.2 4.42999 12.31 4.22999 13.34 4.49999C14.51 4.79999 15.31 5.77999 15.65 6.34999C16.18 7.25999 16.14 7.67999 16.35 8.27999C15.79 6.49999 16 3.97999 16.47 2.83999C16.86 1.88999 17.6 1.06999 18.47 0.529993C19.15 0.109993 20.3 -0.0600065 21.09 0.0199935C22.94 0.199993 24.5 1.20999 25.11 2.84999C25.69 4.39999 26 5.83999 26.23 7.38999C25.95 6.18999 25.89 5.09999 26.14 3.92999C26.34 2.99999 26.84 1.75999 28.22 1.02999C30.3 -0.0700066 32.54 0.319993 33.74 1.69999C34.77 2.87999 35.11 4.66999 35.45 6.18999C36.05 8.86999 36.43 11.65 36.94 14.4C37.11 15.33 37.53 17.68 37.81 18.07C38.06 17.57 38.35 16.17 38.54 15.73C38.78 15.15 39.11 14.14 39.38 13.57C39.91 12.49 40.46 11.76 41.57 11.2C42.84 10.55 45.35 10.87 46.51 11.7C47.82 12.64 48.33 13.83 48.64 15.39C48.96 17.02 48.7 19.2 48.55 20.86C48.54 20.98 48.03 25.23 48.02 25.35C48.02 25.35 47.01 34.08 43.06 39.35L43.04 39.32Z" fill="#009FE3"/>
<path d="M25.98 40.1C24.9 40.1 23.84 39.85 22.85 39.35C21.19 38.51 19.95 37.08 19.37 35.31C19.17 34.71 19.5 34.06 20.1 33.86C20.7 33.66 21.35 33.99 21.55 34.59C21.94 35.77 22.77 36.74 23.88 37.3C24.99 37.86 26.26 37.96 27.44 37.57C29.88 36.77 31.22 34.12 30.41 31.68C30.21 31.08 30.54 30.43 31.14 30.23C31.74 30.03 32.39 30.36 32.59 30.96C33.17 32.73 33.03 34.61 32.19 36.28C31.35 37.94 29.92 39.17 28.15 39.76C27.43 40 26.7 40.11 25.97 40.11L25.98 40.1Z" fill="black"/>
<path d="M18.93 30.29C18.78 30.33 18.63 30.35 18.48 30.35C17.87 30.35 17.31 29.97 17.11 29.37C16.86 28.61 17.28 27.79 18.03 27.55C18.78 27.3 19.6 27.72 19.85 28.47C20.09 29.22 19.68 30.04 18.93 30.29Z" fill="black"/>
<path d="M29.97 26.65C29.82 26.7 29.68 26.72 29.52 26.72C28.91 26.72 28.36 26.33 28.15 25.74C27.9 24.98 28.32 24.16 29.07 23.91C29.43 23.8 29.82 23.82 30.17 23.99C30.51 24.17 30.78 24.46 30.89 24.83C31.14 25.58 30.72 26.4 29.97 26.65Z" fill="black"/>
<path d="M12.93 25.42C12.51 25.42 12.12 25.18 11.93 24.78C9.78997 20.16 7.31997 14.24 7.28997 14.19C7.05997 13.63 7.31997 12.98 7.87997 12.75C8.43997 12.52 9.08997 12.78 9.31997 13.34C9.33997 13.4 11.8 19.28 13.92 23.86C14.18 24.41 13.94 25.07 13.38 25.32C13.23 25.39 13.07 25.42 12.92 25.42H12.93Z" fill="black"/>
<path d="M19.96 20.97C19.51 20.97 19.08 20.69 18.92 20.24C18.28 18.43 15.44 9.01001 15.32 8.61001C15.14 8.03001 15.47 7.41001 16.06 7.24001C16.64 7.07001 17.26 7.40001 17.43 7.98001C17.46 8.08001 20.37 17.75 21 19.51C21.2 20.08 20.9 20.71 20.33 20.91C20.21 20.95 20.08 20.97 19.96 20.97Z" fill="black"/>
<path d="M28.24 19.27C27.72 19.27 27.26 18.9 27.16 18.37L25.04 7.02999C24.93 6.42999 25.32 5.85999 25.92 5.74999C26.51 5.62999 27.09 6.02999 27.2 6.62999L29.32 17.97C29.43 18.57 29.04 19.14 28.44 19.25C28.37 19.26 28.3 19.27 28.24 19.27Z" fill="black"/>
</g>
<defs>
<clipPath id="clip0_376_124">
<rect width="200.77" height="48.15" fill="white"/>
</clipPath>
</defs>
</svg>
