<svg width="179" height="179" viewBox="0 0 179 179" fill="none" xmlns="http://www.w3.org/2000/svg">
<path fill-rule="evenodd" clip-rule="evenodd" d="M89.4999 133.087L46.1166 155.895L54.4021 107.587L19.3043 73.3751L67.8083 66.327L89.4999 22.375L111.192 66.327L159.695 73.3751L124.598 107.587L132.883 155.895L89.4999 133.087Z" stroke="black" stroke-width="3" stroke-linecap="round" stroke-linejoin="round"/>
<path d="M66 114C66 105.188 77.75 105.188 83.625 99.3125C86.5625 96.375 77.75 96.375 77.75 81.6875C77.75 71.8968 81.6657 67 89.5 67C97.3343 67 101.25 71.8968 101.25 81.6875C101.25 96.375 92.4375 96.375 95.375 99.3125C101.25 105.188 113 105.188 113 114" stroke="black" stroke-width="3" stroke-linecap="round"/>
</svg>
